<svg id="ico" width="20" height="20" viewBox="0 0 20 20" fill="none" xmlns="http://www.w3.org/2000/svg">
<path d="M16.0416 14.375V8.125C16.0416 7.20453 15.2955 6.45834 14.375 6.45834H14.0972C13.7608 6.45834 13.4574 6.25605 13.328 5.94552L12.7136 4.47115C12.5842 4.16062 12.2808 3.95834 11.9444 3.95834H8.05554C7.71912 3.95834 7.4157 4.16062 7.2863 4.47115L6.67199 5.94552C6.5426 6.25605 6.23917 6.45834 5.90275 6.45834H5.62498C4.7045 6.45834 3.95831 7.20453 3.95831 8.125V14.375C3.95831 15.2955 4.7045 16.0417 5.62498 16.0417H14.375C15.2955 16.0417 16.0416 15.2955 16.0416 14.375Z" stroke="currentColor" stroke-width="1.5" stroke-linecap="round"/>
<path d="M12.7084 10.8333C12.7084 12.3291 11.4958 13.5417 10 13.5417C8.50427 13.5417 7.29169 12.3291 7.29169 10.8333C7.29169 9.33758 8.50427 8.125 10 8.125C11.4958 8.125 12.7084 9.33758 12.7084 10.8333Z" stroke="currentColor" stroke-width="1.5" stroke-linecap="round"/>
</svg>
