<svg id="ico" width="48" height="48" viewBox="0 0 48 48" fill="none" xmlns="http://www.w3.org/2000/svg">
<path fill-rule="evenodd" clip-rule="evenodd" d="M35.2955 14.2955C35.7348 13.8562 35.7348 13.1438 35.2955 12.7045C34.8562 12.2652 34.1438 12.2652 33.7045 12.7045L24 22.409L14.2955 12.7045C13.8562 12.2652 13.1438 12.2652 12.7045 12.7045C12.2652 13.1438 12.2652 13.8562 12.7045 14.2955L22.409 24L12.7045 33.7045C12.2652 34.1438 12.2652 34.8562 12.7045 35.2955C13.1438 35.7348 13.8562 35.7348 14.2955 35.2955L24 25.591L33.7045 35.2955C34.1438 35.7348 34.8562 35.7348 35.2955 35.2955C35.7348 34.8562 35.7348 34.1438 35.2955 33.7045L25.591 24L35.2955 14.2955Z" fill="currentColor"/>
</svg>
